<svg width="305" height="23" viewBox="0 0 305 23" fill="none" xmlns="http://www.w3.org/2000/svg">
<path d="M21.936 0.863999L17.352 18H14.976L11.064 3.6H11.016L7.056 18H4.68L0.288 0.863999H2.616L5.976 15.12H6.024L9.864 0.863999H12.336L16.128 15.12H16.176L19.656 0.863999H21.936ZM24.1234 11.808C24.1234 8.16 26.2114 5.304 30.1474 5.304C34.0834 5.304 36.1714 8.16 36.1714 11.808C36.1714 15.432 34.0834 18.288 30.1474 18.288C26.2114 18.288 24.1234 15.432 24.1234 11.808ZM26.2834 11.808C26.2834 14.808 28.0114 16.488 30.1474 16.488C32.2834 16.488 34.0114 14.808 34.0114 11.808C34.0114 8.784 32.2834 7.104 30.1474 7.104C28.0114 7.104 26.2834 8.784 26.2834 11.808ZM40.9766 18V5.592H42.8966V7.416H42.9446C43.8566 6.024 45.2486 5.304 46.9526 5.304C48.4646 5.304 49.8566 5.904 50.3606 7.416C51.2006 6.096 52.6646 5.304 54.2486 5.304C56.7206 5.304 58.3766 6.336 58.3766 8.904V18H56.3366V9.864C56.3366 8.328 55.9286 7.104 53.9366 7.104C51.9686 7.104 50.6966 8.352 50.6966 10.272V18H48.6566V9.864C48.6566 8.256 48.1526 7.104 46.3286 7.104C43.9046 7.104 43.0166 9.336 43.0166 10.272V18H40.9766ZM72.4056 14.064H74.4216C73.8696 16.8 71.9016 18.288 69.1176 18.288C65.1576 18.288 63.2856 15.552 63.1656 11.76C63.1656 8.04 65.6136 5.304 68.9976 5.304C73.3896 5.304 74.7336 9.408 74.6136 12.408H65.3256C65.2536 14.568 66.4776 16.488 69.1896 16.488C70.8696 16.488 72.0456 15.672 72.4056 14.064ZM65.3256 10.608H72.4536C72.3576 8.664 70.8936 7.104 68.8776 7.104C66.7416 7.104 65.4696 8.712 65.3256 10.608ZM79.1282 18V5.592H81.0482V7.56H81.0962C81.9602 6.024 83.3522 5.304 85.1282 5.304C88.3922 5.304 89.4002 7.176 89.4002 9.84V18H87.3602V9.6C87.3602 8.088 86.4002 7.104 84.8402 7.104C82.3682 7.104 81.1682 8.76 81.1682 10.992V18H79.1282ZM116.352 5.88H114.192C113.928 3.432 112.296 2.376 109.944 2.376C108.024 2.376 106.104 3.072 106.104 5.304C106.104 7.416 108.84 7.728 111.6 8.352C114.336 8.976 117.072 9.936 117.072 13.296C117.072 16.944 113.496 18.408 110.376 18.408C106.536 18.408 103.296 16.536 103.296 12.36H105.456C105.456 15.24 107.856 16.488 110.448 16.488C112.512 16.488 114.792 15.84 114.792 13.368C114.792 11.016 112.056 10.608 109.32 10.008C106.584 9.408 103.824 8.616 103.824 5.472C103.824 1.992 106.92 0.456 110.04 0.456C113.544 0.456 116.208 2.112 116.352 5.88ZM132.178 5.592V18H130.258V16.032H130.21C129.346 17.568 127.954 18.288 126.178 18.288C122.914 18.288 121.906 16.416 121.906 13.752V5.592H123.946V13.992C123.946 15.504 124.906 16.488 126.466 16.488C128.938 16.488 130.138 14.832 130.138 12.6V5.592H132.178ZM147.314 11.688C147.314 9.36 146.114 7.104 143.474 7.104C140.738 7.104 139.682 9.456 139.682 11.784C139.682 14.232 140.786 16.488 143.594 16.488C146.378 16.488 147.314 14.112 147.314 11.688ZM137.714 22.752V5.592H139.754V7.272H139.802C140.474 5.904 142.058 5.304 143.762 5.304C147.578 5.304 149.474 8.328 149.474 11.832C149.474 15.336 147.602 18.288 143.81 18.288C142.538 18.288 140.714 17.808 139.802 16.344H139.754V22.752H137.714ZM163.941 11.688C163.941 9.36 162.741 7.104 160.101 7.104C157.365 7.104 156.309 9.456 156.309 11.784C156.309 14.232 157.413 16.488 160.221 16.488C163.005 16.488 163.941 14.112 163.941 11.688ZM154.341 22.752V5.592H156.381V7.272H156.429C157.101 5.904 158.685 5.304 160.389 5.304C164.205 5.304 166.101 8.328 166.101 11.832C166.101 15.336 164.229 18.288 160.437 18.288C159.165 18.288 157.341 17.808 156.429 16.344H156.381V22.752H154.341ZM170.223 11.808C170.223 8.16 172.311 5.304 176.247 5.304C180.183 5.304 182.271 8.16 182.271 11.808C182.271 15.432 180.183 18.288 176.247 18.288C172.311 18.288 170.223 15.432 170.223 11.808ZM172.383 11.808C172.383 14.808 174.111 16.488 176.247 16.488C178.383 16.488 180.111 14.808 180.111 11.808C180.111 8.784 178.383 7.104 176.247 7.104C174.111 7.104 172.383 8.784 172.383 11.808ZM187.005 18V5.592H188.925V8.208H188.973C189.957 6.216 191.325 5.232 193.533 5.304V7.464C190.245 7.464 189.045 9.336 189.045 12.48V18H187.005ZM200.301 1.872V5.592H202.773V7.392H200.301V15.096C200.301 16.032 200.565 16.2 201.837 16.2H202.773V18H201.213C199.101 18 198.261 17.568 198.261 15.288V7.392H196.149V5.592H198.261V1.872H200.301ZM236.919 0.863999L232.335 18H229.959L226.047 3.6H225.999L222.039 18H219.663L215.271 0.863999H217.599L220.959 15.12H221.007L224.847 0.863999H227.319L231.111 15.12H231.159L234.639 0.863999H236.919ZM239.106 11.808C239.106 8.16 241.194 5.304 245.13 5.304C249.066 5.304 251.154 8.16 251.154 11.808C251.154 15.432 249.066 18.288 245.13 18.288C241.194 18.288 239.106 15.432 239.106 11.808ZM241.266 11.808C241.266 14.808 242.994 16.488 245.13 16.488C247.266 16.488 248.994 14.808 248.994 11.808C248.994 8.784 247.266 7.104 245.13 7.104C242.994 7.104 241.266 8.784 241.266 11.808ZM255.959 18V5.592H257.879V7.416H257.927C258.839 6.024 260.231 5.304 261.935 5.304C263.447 5.304 264.839 5.904 265.343 7.416C266.183 6.096 267.647 5.304 269.231 5.304C271.703 5.304 273.359 6.336 273.359 8.904V18H271.319V9.864C271.319 8.328 270.911 7.104 268.919 7.104C266.951 7.104 265.679 8.352 265.679 10.272V18H263.639V9.864C263.639 8.256 263.135 7.104 261.311 7.104C258.887 7.104 257.999 9.336 257.999 10.272V18H255.959ZM287.388 14.064H289.404C288.852 16.8 286.884 18.288 284.1 18.288C280.14 18.288 278.268 15.552 278.148 11.76C278.148 8.04 280.596 5.304 283.98 5.304C288.372 5.304 289.716 9.408 289.596 12.408H280.308C280.236 14.568 281.46 16.488 284.172 16.488C285.852 16.488 287.028 15.672 287.388 14.064ZM280.308 10.608H287.436C287.34 8.664 285.876 7.104 283.86 7.104C281.724 7.104 280.452 8.712 280.308 10.608ZM294.111 18V5.592H296.031V7.56H296.079C296.943 6.024 298.335 5.304 300.111 5.304C303.375 5.304 304.383 7.176 304.383 9.84V18H302.343V9.6C302.343 8.088 301.383 7.104 299.823 7.104C297.351 7.104 296.151 8.76 296.151 10.992V18H294.111Z" fill="#D98355"/>
</svg>
