<svg width="313" height="59" viewBox="0 0 313 59" fill="none" xmlns="http://www.w3.org/2000/svg">
<path d="M12.74 17.56L9.56 17.74C8 25.94 6.76 32.04 5.84 36.04C7.44 36.84 8.76 37.56 9.8 38.2C11.28 32.36 12.26 25.48 12.74 17.56ZM38.54 14.92L34.4 17.14V34.3C35.56 34.34 36.34 34.34 36.74 34.3C37.3 34.3 37.7 34.12 37.94 33.76C38.22 33.32 38.38 32.06 38.42 29.98C38.5 27.9 38.54 23.7 38.54 17.38C38.54 16.3 38.54 15.48 38.54 14.92ZM43.94 39.04L44.12 47.5C44.92 47.86 45.46 48.24 45.74 48.64C46.06 48.96 46.22 49.42 46.22 50.02C46.22 51.54 45.38 52.62 43.7 53.26C42.06 53.94 38.84 54.4 34.04 54.64L27.8 54.94C25.04 55.06 23.14 54.7 22.1 53.86C21.14 53.06 20.66 51.4 20.66 48.88V24.52L17.9 26.02L17.06 24.82C16.26 30.9 15.04 36.2 13.4 40.72C16.84 43.52 18.56 46.26 18.56 48.94C18.52 50.5 17.94 51.54 16.82 52.06C15.9 52.5 14.98 52.34 14.06 51.58C13.34 49.82 12.34 48 11.06 46.12C8.5 51 5.18 55.04 1.1 58.24L0.56 57.58C3.96 53.58 6.6 48.64 8.48 42.76C6.36 40.08 3.98 37.64 1.34 35.44C2.34 31.32 3.44 25.5 4.64 17.98L1.16 18.16L0.74 16.42L4.94 16.24C5.98 9.76 6.6 4.92 6.8 1.72L11.78 3.1C11.38 6.7 10.74 11 9.86 16L12.26 15.88L17.78 15.58V18.34C17.54 21.02 17.32 23.12 17.12 24.64L20.66 22.72V9.76L25.64 10.42V20.08L29.54 17.86V0.699999L34.4 1.24V15.28L40.58 10.54L45.2 15.1C44.88 15.58 44.28 15.96 43.4 16.24C43.4 24.72 43.28 30.34 43.04 33.1C42.84 35.82 42.34 37.7 41.54 38.74C40.38 40.14 38.78 40.88 36.74 40.96C36.74 39.16 36.58 37.9 36.26 37.18C35.98 36.42 35.36 35.84 34.4 35.44V43.18C34.4 43.5 33.96 43.92 33.08 44.44C32.2 44.96 31.34 45.26 30.5 45.34H29.54V19.72L25.64 21.88V47.08C25.64 47.92 25.82 48.48 26.18 48.76C26.54 49.04 27.28 49.14 28.4 49.06L34.4 48.76C36.68 48.64 38.4 48.52 39.56 48.4C40.24 48.24 40.74 47.92 41.06 47.44C41.66 46.28 42.46 43.5 43.46 39.1L43.94 39.04ZM104.456 22.3L109.136 26.92C107.736 31.08 105.996 34.66 103.916 37.66C101.876 40.66 99.2556 43.52 96.0556 46.24C92.9356 48.96 89.0556 51.36 84.4156 53.44C79.8156 55.48 74.4956 57.2 68.4556 58.6L68.2156 57.76C82.3356 52.56 92.5156 44.94 98.7556 34.9C91.6356 37.3 84.1956 39.5 76.4356 41.5C76.0756 42.34 75.5556 42.96 74.8756 43.36L72.1756 34.78C73.2556 34.58 74.0956 34.26 74.6956 33.82C78.7356 31.5 83.7756 27.1 89.8156 20.62C85.1756 22.42 80.4956 24.06 75.7756 25.54C75.3756 26.22 74.9356 26.7 74.4556 26.98L71.9356 19.3C72.7756 19.1 73.3756 18.86 73.7356 18.58C76.0556 17.1 78.6756 14.42 81.5956 10.54C84.5156 6.66 86.5956 3.32 87.8356 0.519998L94.8556 5.26C94.5356 5.9 93.9156 6.18 92.9956 6.1C91.2756 8.1 88.9356 10.34 85.9756 12.82C83.0556 15.26 80.1556 17.4 77.2756 19.24C81.8756 18.92 86.7756 18.54 91.9756 18.1C95.4156 14.02 97.8756 10.64 99.3556 7.96L106.136 13.84C105.776 14.56 105.056 14.78 103.976 14.5C101.416 17.54 97.6356 21 92.6356 24.88C87.6356 28.76 82.7556 32.08 77.9956 34.84C84.2756 34.32 91.6556 33.56 100.136 32.56C101.816 29.44 103.256 26.02 104.456 22.3ZM143.222 33.1V43.96C143.862 43.8 144.882 43.52 146.282 43.12C147.682 42.68 148.762 42.36 149.522 42.16V32.74L143.222 33.1ZM149.522 8.56L143.222 8.92V19.24L149.522 18.88V8.56ZM149.522 31.06V20.56L143.222 20.92V31.42L149.522 31.06ZM158.342 39.58L158.402 40.36C153.562 43.88 146.822 48.04 138.182 52.84C137.902 53.68 137.442 54.22 136.802 54.46L134.222 46.12C134.462 46.08 135.802 45.78 138.242 45.22V7.42L143.822 7.12L149.042 6.88L154.622 6.58V9.4V40.66L158.342 39.58ZM178.022 15.94V18.76C177.822 29.96 177.442 38.12 176.882 43.24C176.362 48.28 175.462 51.64 174.182 53.32C172.582 55.36 170.422 56.42 167.702 56.5C167.702 54.18 167.402 52.66 166.802 51.94C166.082 50.94 164.642 50.2 162.482 49.72V48.88C165.802 49 167.762 49.06 168.362 49.06C169.082 49.02 169.662 48.72 170.102 48.16C170.902 47.2 171.502 44.32 171.902 39.52C172.302 34.68 172.602 27.46 172.802 17.86L166.922 18.16C166.802 21.88 166.582 25.14 166.262 27.94C165.942 30.74 165.382 33.66 164.582 36.7C163.782 39.7 162.742 42.38 161.462 44.74C160.182 47.06 158.462 49.36 156.302 51.64C154.182 53.88 151.662 55.94 148.742 57.82L148.262 56.92C150.342 54.92 152.162 52.78 153.722 50.5C155.242 48.18 156.482 45.88 157.442 43.6C158.402 41.28 159.182 38.7 159.782 35.86C160.342 32.98 160.742 30.22 160.982 27.58C161.222 24.9 161.382 21.84 161.462 18.4L155.702 18.7L155.282 17.08L161.462 16.72V1.42L167.162 2.08C167.042 11.32 166.982 16.12 166.982 16.48L172.322 16.18L178.022 15.94ZM242.725 15.7V18.64C242.525 28.84 242.085 36.7 241.405 42.22C240.765 47.78 239.745 51.4 238.345 53.08C236.665 55.24 234.125 56.4 230.725 56.56C230.805 54.08 230.385 52.38 229.465 51.46C228.425 50.3 226.385 49.46 223.345 48.94L223.405 48.1C227.685 48.34 230.525 48.42 231.925 48.34C232.805 48.3 233.445 48 233.845 47.44C235.445 45.68 236.485 35.76 236.965 17.68L225.325 18.28C225.085 21.76 224.745 24.9 224.305 27.7C223.865 30.42 223.125 33.3 222.085 36.34C221.085 39.34 219.785 42.06 218.185 44.5C216.625 46.94 214.565 49.36 212.005 51.76C209.445 54.16 206.445 56.36 203.005 58.36L202.525 57.58C205.685 54.82 208.345 51.92 210.505 48.88C212.665 45.84 214.345 42.62 215.545 39.22C216.745 35.86 217.605 32.58 218.125 29.38C218.685 26.18 219.065 22.58 219.265 18.58L204.985 19.3L204.565 17.62L219.325 16.9C219.405 14.46 219.445 9.32 219.445 1.48L225.685 2.08C225.525 10.76 225.425 15.6 225.385 16.6L236.485 16.06L242.725 15.7ZM306.207 18.22V19.9L298.467 20.32V41.44C298.467 43.84 298.007 45.6 297.087 46.72C296.207 47.84 294.327 48.62 291.447 49.06C291.327 47.18 290.987 45.88 290.427 45.16C289.587 44.28 288.247 43.72 286.407 43.48V42.7C289.567 42.78 291.447 42.8 292.047 42.76C292.727 42.72 293.067 42.38 293.067 41.74V28.6C290.027 34.6 285.887 39.68 280.647 43.84L280.107 43.18C284.747 37.42 288.167 29.92 290.367 20.68L281.127 21.16L280.767 19.48L293.067 18.88V8.74L298.467 9.28V18.64L306.207 18.22ZM279.087 51.46L307.287 50.02V6.52L279.087 7.96V51.46ZM312.987 4.54V7.36V53.8C312.947 54.12 312.367 54.6 311.247 55.24C310.167 55.88 309.147 56.24 308.187 56.32H307.287V51.7L279.087 53.14V55.42C279.087 55.94 278.587 56.52 277.587 57.16C276.627 57.84 275.587 58.22 274.467 58.3H273.507V6.46L279.567 6.16L306.807 4.84L312.987 4.54Z" fill="#D98355"/>
</svg>
